<?xml version="1.0" encoding="utf-8"?>
<!-- Generator: Adobe Illustrator 25.2.1, SVG Export Plug-In . SVG Version: 6.00 Build 0)  -->
<svg version="1.1" id="layer_1" xmlns="http://www.w3.org/2000/svg" xmlns:xlink="http://www.w3.org/1999/xlink" x="0px" y="0px"
	 viewBox="0 0 32 32" style="enable-background:new 0 0 32 32;" xml:space="preserve">
<style type="text/css">
	.st0{fill:url(#SVGID_1_);}
	.st1{fill:#006837;}
	.st2{fill:#FFFFFF;}
</style>
<g>
	<linearGradient id="SVGID_1_" gradientUnits="userSpaceOnUse" x1="1" y1="16" x2="31" y2="16">
		<stop  offset="0" style="stop-color:#8CC63F"/>
		<stop  offset="1" style="stop-color:#22B573"/>
	</linearGradient>
	<rect x="1" y="1" class="st0" width="30" height="30"/>
	<path class="st1" d="M30,2v28H2V2H30 M32,0H0v32h32V0L32,0z"/>
</g>
<g>
	<path class="st2" d="M5.56,9.86h4.5c3.38,0,5.62,2.25,5.62,5.74c0,3.45-2.17,6.02-5.71,6.02H5.56V9.86z M7.76,19.81h2.1
		c2.43,0,3.54-1.78,3.54-4.2c0-2.06-1.02-3.95-3.52-3.95H7.76V19.81z"/>
	<path class="st2" d="M17.98,9.86h4.73c2.43,0,4.08,1.36,4.08,3.56c0,2.46-1.84,3.65-4.15,3.65h-2.45v4.54h-2.21V9.86z M20.19,15.3
		h2.21c1.33,0,2.15-0.57,2.15-1.82c0-1.29-0.91-1.83-2.09-1.83h-2.26V15.3z"/>
</g>
</svg>
